<svg
 xmlns="http://www.w3.org/2000/svg"
 xmlns:xlink="http://www.w3.org/1999/xlink"
 width="24px" height="24px">
<path
 d="M23.984,19.753 C23.908,19.176 23.574,18.679 23.070,18.389 L17.148,14.980 C16.423,14.562 15.503,14.684 14.911,15.276 L13.744,16.442 C13.434,16.752 12.943,16.780 12.602,16.506 C11.683,15.766 10.777,14.952 9.911,14.086 C9.045,13.220 8.231,12.315 7.491,11.395 C7.217,11.055 7.244,10.564 7.555,10.253 L8.721,9.087 C9.313,8.495 9.435,7.575 9.017,6.850 L5.607,0.929 C5.317,0.425 4.820,0.092 4.243,0.016 C3.666,-0.060 3.099,0.132 2.688,0.543 L0.930,2.301 C-0.297,3.527 -0.316,5.771 0.875,8.618 C2.020,11.356 4.157,14.370 6.892,17.104 C9.627,19.839 12.642,21.976 15.380,23.121 C16.782,23.707 18.037,23.999 19.097,23.999 C20.191,23.999 21.076,23.688 21.699,23.065 L23.456,21.308 C23.868,20.897 24.060,20.330 23.984,19.753 ZM16.760,15.653 L22.682,19.062 C22.975,19.231 23.169,19.520 23.213,19.855 C23.250,20.136 23.177,20.413 23.011,20.636 L15.141,16.145 L15.461,15.825 C15.804,15.482 16.339,15.411 16.760,15.653 ZM4.141,0.787 C4.476,0.831 4.765,1.025 4.933,1.317 L8.343,7.238 C8.586,7.659 8.515,8.194 8.171,8.537 L7.878,8.831 L3.361,0.988 C3.546,0.852 3.766,0.777 3.997,0.777 C4.044,0.777 4.093,0.781 4.141,0.787 ZM21.149,22.515 C20.174,23.490 18.181,23.449 15.680,22.403 C13.033,21.296 10.107,19.219 7.442,16.555 C4.777,13.889 2.699,10.965 1.592,8.318 C0.546,5.817 0.505,3.825 1.480,2.850 L2.785,1.546 L7.308,9.401 L7.005,9.704 C6.413,10.295 6.361,11.232 6.885,11.883 C7.642,12.824 8.475,13.750 9.361,14.635 C10.247,15.521 11.173,16.354 12.115,17.112 C12.765,17.635 13.702,17.583 14.294,16.992 L14.571,16.715 L22.452,21.212 L21.149,22.515 Z"/>
</svg>
