<svg xmlns="http://www.w3.org/2000/svg" width="23" height="24" viewBox="0 0 23 24">
  <metadata><?xpacket begin="﻿" id="W5M0MpCehiHzreSzNTczkc9d"?>
<x:xmpmeta xmlns:x="adobe:ns:meta/" x:xmptk="Adobe XMP Core 5.6-c140 79.160451, 2017/05/06-01:08:21        ">
   <rdf:RDF xmlns:rdf="http://www.w3.org/1999/02/22-rdf-syntax-ns#">
      <rdf:Description rdf:about=""/>
   </rdf:RDF>
</x:xmpmeta>
                                                                                                    
                                                                                                    
                                                                                                    
                                                                                                    
                                                                                                    
                                                                                                    
                                                                                                    
                                                                                                    
                                                                                                    
                                                                                                    
                                                                                                    
                                                                                                    
                                                                                                    
                                                                                                    
                                                                                                    
                                                                                                    
                                                                                                    
                                                                                                    
                                                                                                    
                                                                                                    
                           
<?xpacket end="w"?></metadata>
<defs>
    <style>
      .cls-1 {
        fill: #ff0d0d;
        fill-rule: evenodd;
      }
    </style>
  </defs>
  <path id="Shape_1_копия" data-name="Shape 1 копия" class="cls-1" d="M978.869,1541.49l-6.219-6.35a0.472,0.472,0,0,0-.338-0.14h-9.268a1.868,1.868,0,0,0-1.881,1.85v6.46h-3.756a1.4,1.4,0,0,0-1.407,1.38v6.93a1.4,1.4,0,0,0,1.407,1.38h3.756v4.15a1.868,1.868,0,0,0,1.881,1.85h14.075a1.868,1.868,0,0,0,1.881-1.85v-15.34A0.464,0.464,0,0,0,978.869,1541.49Zm-6.44-5.24,5.1,5.21h-5.1v-5.21Zm-15.022,15.83a0.467,0.467,0,0,1-.468-0.46v-6.93a0.467,0.467,0,0,1,.468-0.46h12.675a0.467,0.467,0,0,1,.469.46v6.93a0.467,0.467,0,0,1-.469.46H957.407Zm20.654,5.07a0.939,0.939,0,0,1-.942.93H963.044a0.939,0.939,0,0,1-.942-0.93V1553h7.98a1.4,1.4,0,0,0,1.408-1.38v-6.93a1.4,1.4,0,0,0-1.408-1.38H962.1v-6.46a0.939,0.939,0,0,1,.942-0.93h8.446v6a0.461,0.461,0,0,0,.469.46h6.1v14.77h0Zm-16.45-10.44a1.056,1.056,0,0,0-.58-0.39,5.055,5.055,0,0,0-.968-0.05h-1.306v3.96h0.814v-1.5H960.1a4.645,4.645,0,0,0,.844-0.05,1.267,1.267,0,0,0,.422-0.19,1.177,1.177,0,0,0,.342-0.39,1.278,1.278,0,0,0,.135-0.61A1.232,1.232,0,0,0,961.611,1546.71Zm-0.7,1.09a0.522,0.522,0,0,1-.254.2,2.216,2.216,0,0,1-.644.06h-0.445v-1.12h0.393a4.034,4.034,0,0,1,.586.02,0.572,0.572,0,0,1,.327.18A0.552,0.552,0,0,1,960.914,1547.8Zm4.845-.45a1.713,1.713,0,0,0-.385-0.64,1.33,1.33,0,0,0-.608-0.37,3.021,3.021,0,0,0-.767-0.07h-1.488v3.96h1.532a2.747,2.747,0,0,0,.72-0.08,1.567,1.567,0,0,0,.572-0.32,1.744,1.744,0,0,0,.432-0.7,2.571,2.571,0,0,0,.124-0.84A2.85,2.85,0,0,0,965.759,1547.35Zm-0.792,1.63a0.883,0.883,0,0,1-.213.38,0.7,0.7,0,0,1-.329.16,1.962,1.962,0,0,1-.492.04h-0.608v-2.62h0.366a4.728,4.728,0,0,1,.668.03,0.878,0.878,0,0,1,.377.19,0.9,0.9,0,0,1,.231.38,2.375,2.375,0,0,1,.082.71A2.573,2.573,0,0,1,964.967,1548.98Zm4.384-2.04v-0.67h-2.764v3.96H967.4v-1.69h1.683v-0.67H967.4v-0.93h1.95Z" transform="translate(-956 -1535)"/>
</svg>
