<svg xmlns="http://www.w3.org/2000/svg" width="24" height="14" viewBox="0 0 24 14">
  <metadata><?xpacket begin="﻿" id="W5M0MpCehiHzreSzNTczkc9d"?>
<x:xmpmeta xmlns:x="adobe:ns:meta/" x:xmptk="Adobe XMP Core 5.6-c140 79.160451, 2017/05/06-01:08:21        ">
   <rdf:RDF xmlns:rdf="http://www.w3.org/1999/02/22-rdf-syntax-ns#">
      <rdf:Description rdf:about=""/>
   </rdf:RDF>
</x:xmpmeta>
                                                                                                    
                                                                                                    
                                                                                                    
                                                                                                    
                                                                                                    
                                                                                                    
                                                                                                    
                                                                                                    
                                                                                                    
                                                                                                    
                                                                                                    
                                                                                                    
                                                                                                    
                                                                                                    
                                                                                                    
                                                                                                    
                                                                                                    
                                                                                                    
                                                                                                    
                                                                                                    
                           
<?xpacket end="w"?></metadata>
<defs>
    <style>
      .cls-1 {
        fill: #bdbdbd;
        fill-rule: evenodd;
      }
    </style>
  </defs>
  <path class="cls-1" d="M1026.61,1545.84a15,15,0,0,0-5.05-4.26,14.3,14.3,0,0,0-6.38-1.58h-0.37a14.327,14.327,0,0,0-6.38,1.58,15.065,15.065,0,0,0-5.04,4.26,1.92,1.92,0,0,0,0,2.32,14.921,14.921,0,0,0,5.04,4.25,14.206,14.206,0,0,0,6.38,1.59h0.37a14.174,14.174,0,0,0,6.38-1.59,14.86,14.86,0,0,0,5.05-4.25A1.92,1.92,0,0,0,1026.61,1545.84Zm-17.74,5.67a13.934,13.934,0,0,1-4.71-3.97,0.915,0.915,0,0,1,0-1.09,14.048,14.048,0,0,1,4.71-3.97,15.906,15.906,0,0,1,1.59-.69,7.135,7.135,0,0,0,0,10.42A13.962,13.962,0,0,1,1008.87,1551.51ZM1015,1553a6,6,0,1,1,5.83-6A5.926,5.926,0,0,1,1015,1553Zm10.84-5.46a13.934,13.934,0,0,1-4.71,3.97,12.325,12.325,0,0,1-1.59.69,7.124,7.124,0,0,0,0-10.41,15.906,15.906,0,0,1,1.59.69,14.048,14.048,0,0,1,4.71,3.97A0.915,0.915,0,0,1,1025.84,1547.54Zm-10.84-3.11a2.571,2.571,0,1,0,2.49,2.57A2.527,2.527,0,0,0,1015,1544.43Zm0,4.13a1.561,1.561,0,1,1,1.52-1.56A1.541,1.541,0,0,1,1015,1548.56Z" transform="translate(-1003 -1540)"/>
</svg>
