<svg xmlns="http://www.w3.org/2000/svg" width="24" height="22" viewBox="0 0 24 22">
  <metadata><?xpacket begin="﻿" id="W5M0MpCehiHzreSzNTczkc9d"?>
<x:xmpmeta xmlns:x="adobe:ns:meta/" x:xmptk="Adobe XMP Core 5.6-c140 79.160451, 2017/05/06-01:08:21        ">
   <rdf:RDF xmlns:rdf="http://www.w3.org/1999/02/22-rdf-syntax-ns#">
      <rdf:Description rdf:about=""/>
   </rdf:RDF>
</x:xmpmeta>
                                                                                                    
                                                                                                    
                                                                                                    
                                                                                                    
                                                                                                    
                                                                                                    
                                                                                                    
                                                                                                    
                                                                                                    
                                                                                                    
                                                                                                    
                                                                                                    
                                                                                                    
                                                                                                    
                                                                                                    
                                                                                                    
                                                                                                    
                                                                                                    
                                                                                                    
                                                                                                    
                           
<?xpacket end="w"?></metadata>
<defs>
    <style>
      .cls-1 {
        fill: #ff0d0d;
        fill-rule: evenodd;
      }
    </style>
  </defs>
  <path id="Forma_1" data-name="Forma 1" class="cls-1" d="M1443.9,213.2a0.52,0.52,0,0,0-.4-0.2h-19l-0.5-2.6a0.538,0.538,0,0,0-.5-0.4h-3a0.5,0.5,0,0,0,0,1h2.6l2.4,12.2a3.523,3.523,0,0,0,3.4,2.8h11.5a0.5,0.5,0,0,0,0-1H1429a2.305,2.305,0,0,1-2-1.1l14.6-2a0.43,0.43,0,0,0,.4-0.4l2-8A0.494,0.494,0,0,0,1443.9,213.2Zm-2.8,7.8-14.6,1.9-1.8-9h18.1Zm-12.6,6a2.5,2.5,0,1,0,2.5,2.5A2.476,2.476,0,0,0,1428.5,227Zm0,4a1.5,1.5,0,1,1,1.5-1.5A1.538,1.538,0,0,1,1428.5,231Zm10-4a2.5,2.5,0,1,0,2.5,2.5A2.476,2.476,0,0,0,1438.5,227Zm0,4a1.5,1.5,0,1,1,1.5-1.5A1.538,1.538,0,0,1,1438.5,231Z" transform="translate(-1420 -210)"/>
</svg>
