<svg xmlns="http://www.w3.org/2000/svg" width="24" height="24" viewBox="0 0 24 24">
  <metadata><?xpacket begin="﻿" id="W5M0MpCehiHzreSzNTczkc9d"?>
<x:xmpmeta xmlns:x="adobe:ns:meta/" x:xmptk="Adobe XMP Core 5.6-c140 79.160451, 2017/05/06-01:08:21        ">
   <rdf:RDF xmlns:rdf="http://www.w3.org/1999/02/22-rdf-syntax-ns#">
      <rdf:Description rdf:about=""/>
   </rdf:RDF>
</x:xmpmeta>
                                                                                                    
                                                                                                    
                                                                                                    
                                                                                                    
                                                                                                    
                                                                                                    
                                                                                                    
                                                                                                    
                                                                                                    
                                                                                                    
                                                                                                    
                                                                                                    
                                                                                                    
                                                                                                    
                                                                                                    
                                                                                                    
                                                                                                    
                                                                                                    
                                                                                                    
                                                                                                    
                           
<?xpacket end="w"?></metadata>
<defs>
    <style>
      .cls-1 {
        fill: #6f6f6f;
        fill-rule: evenodd;
      }
    </style>
  </defs>
  <path id="Forma_1" data-name="Forma 1" class="cls-1" d="M1285.96,223.633h0l-3.94-8.6,0.96-.475-0.36-.716-0.93.464-0.13-.275a0.4,0.4,0,0,0-.53-0.2,0.418,0.418,0,0,0-.19.2l-0.12.245a5.1,5.1,0,0,0-2.16-.478h-3.36V213h0.8v-0.8h-0.69l0.29-1.151a1.649,1.649,0,0,0-3.2-.8,1.55,1.55,0,0,0,0,.8l0.29,1.151H1272V213h0.8v0.8h-3.36a5.084,5.084,0,0,0-2.16.479l-0.12-.245a0.4,0.4,0,0,0-.53-0.2,0.418,0.418,0,0,0-.19.2l-0.13.275-0.93-.466-0.36.717,0.96,0.477-3.94,8.6a0.327,0.327,0,0,0-.04.167,2.8,2.8,0,0,0,2.8,2.8h4a2.8,2.8,0,0,0,2.8-2.8,0.324,0.324,0,0,0-.04-0.166l-3.95-8.63a4.345,4.345,0,0,1,1.83-.4h3.36v14.636l-1.37,1.365H1270a2,2,0,0,0-2,2,0.4,0.4,0,0,0,.4.4h11.2a0.4,0.4,0,0,0,.4-0.4,2,2,0,0,0-2-2h-1.43l-1.37-1.365V214.6h3.36a4.345,4.345,0,0,1,1.83.4l-3.95,8.629a0.327,0.327,0,0,0-.04.167,2.8,2.8,0,0,0,2.8,2.8h4a2.8,2.8,0,0,0,2.8-2.8A0.324,0.324,0,0,0,1285.96,223.633ZM1268.8,225.8h-4a2,2,0,0,1-1.96-1.6h7.92A2,2,0,0,1,1268.8,225.8Zm1.78-2.4h-7.56l3.68-8.017a0.377,0.377,0,0,0,.2,0Zm2.75-13.274a0.87,0.87,0,0,1,1.23-.1,0.687,0.687,0,0,1,.11.1,0.83,0.83,0,0,1,.15.729l-0.33,1.345h-0.98l-0.33-1.345A0.83,0.83,0,0,1,1273.33,210.125Zm0.27,3.674V213h0.8v0.8h-0.8Zm0.8,0.8V229h-0.8V214.6h0.8Zm3.6,16.8a1.2,1.2,0,0,1,1.13.8h-10.26a1.2,1.2,0,0,1,1.13-.8h8Zm-2.57-.8h-2.86l0.8-.8h1.26Zm5.67-15.216a0.272,0.272,0,0,0,.2-0.008l3.68,8.024h-7.56Zm2.1,10.416h-4a2,2,0,0,1-1.96-1.6h7.92A2,2,0,0,1,1283.2,225.8Z" transform="translate(-1262 -209)"/>
</svg>
