<svg xmlns="http://www.w3.org/2000/svg" xmlns:xlink="http://www.w3.org/1999/xlink" viewBox="0 0 1251.58 335.13"><defs><style>.cls-1{fill:url(#Безымянный_градиент_92);}.cls-2{fill:#d24a43;}.cls-3{fill:#201600;}.cls-4{fill:#db1616;}</style><linearGradient id="Безымянный_градиент_92" x1="613.83" y1="166.83" x2="856.2" y2="166.83" gradientUnits="userSpaceOnUse"><stop offset="0.28" stop-color="#f15a24"/><stop offset="0.42" stop-color="#f64324"/><stop offset="0.58" stop-color="#fb2e25"/><stop offset="0.74" stop-color="#fe2125"/><stop offset="0.89" stop-color="#ff1d25"/></linearGradient></defs><title>Ресурс 5</title><g id="Слой_2" data-name="Слой 2"><g id="Слой_1-2" data-name="Слой 1"><path class="cls-1" d="M668.34,333.66c-4-1.85-43.65-20.94-52.77-66.81-9.28-46.72,21.31-79.92,24.19-82.94,4.71-5.77,12-16.66,13.17-31.42a51,51,0,0,0-.07-8.69,32,32,0,0,1,4.78,42.14c13.31-.65,19.81-5.65,22.67-8.47C695,163,692.41,129.08,668.59,96.32a48.69,48.69,0,0,1,18.86-.12A50.22,50.22,0,0,1,714.05,111c-1.64-5.84-4.17-14.79-7.37-25.71-8.63-29.44-10.61-33.93-11-41.81C695.28,34,697.16,19,710.9,0c6.8,6.2,17.74,16.06,31.54,28,7.74,6.67,12.22,10.4,36.37,30.71,26.51,22.3,30.79,26,37.79,32.9,12.77,12.67,19.16,19,25.48,29.6,4.33,7.27,13.65,22.88,14.11,41.84.84,34.88-28.79,58.93-33.48,62.61.5-.8,6.85-11.41,1.5-23.13s-17.33-13.82-18.3-14a27.93,27.93,0,0,1-19,32.21,70.24,70.24,0,0,0-4.83-30.36c-7.08-17.57-24.7-39.78-44.07-38.3a25.92,25.92,0,0,0-9.43,2.63c-1.8,8.06-5.68,19.59-15.18,29-12.58,12.4-26.46,12.57-34.49,16.61C663.89,207.83,652.59,237.49,668.34,333.66Z"/><path class="cls-2" d="M1025.55,333.53v-22h22v22Z"/><path class="cls-3" d="M1065.45,333.53V237.79h39.77q13.93,0,22.57,9.24t8.63,23.7q0,14.59-8.63,23.9t-22.57,9.31h-16.33v29.59Zm23.44-49.68h11.51q5.89,0,9-3.62a13.93,13.93,0,0,0,3.15-9.5q0-5.89-3.08-9.38t-8.71-3.48h-11.91Z"/><path class="cls-3" d="M1142.45,282.38q0-17,11.91-28.26t30.94-11.24V233.1h23.43v9.78q19,0,30.93,11.24t11.92,28.26q0,17.53-11.92,29.12t-30.93,11.58v12.05H1185.3V323.08q-19,0-30.94-11.58T1142.45,282.38Zm23.83,0a21.71,21.71,0,0,0,5.49,15,17.41,17.41,0,0,0,13.53,6.16v-41.1a17.86,17.86,0,0,0-13.53,5.82A19.84,19.84,0,0,0,1166.28,282.38Zm42.45,21.15a17.39,17.39,0,0,0,13.52-6.16,21.71,21.71,0,0,0,5.49-15,19.84,19.84,0,0,0-5.49-14.13,17.84,17.84,0,0,0-13.52-5.82Z"/><path class="cls-4" d="M0,332.87V237.13H23.43v36.95h9.64l19.82-36.95H78.06L52.22,282.92v.27l27.32,49.68H53.29L33.07,294H23.43v38.83Z"/><path class="cls-4" d="M87.57,327.24,97.75,309.7q5.75,4.82,10.57,4.82,5.63,0,7.64-4.95L79,237.13h25.71l15.93,34.41,5.23,12.85h.26q1.47-6,3.75-12.72l11.79-34.54H166.3L138.05,308.9a81.61,81.61,0,0,1-4.08,8.9,52,52,0,0,1-5.49,8,23.58,23.58,0,0,1-8.24,6.43,25.18,25.18,0,0,1-10.84,2.27A37.38,37.38,0,0,1,87.57,327.24Z"/><path class="cls-4" d="M166.84,319.88,179,304.48Q188.8,314,199.38,314,212,314,212,303.27q0-9.36-11.24-9.37H189.2V275.29h9.37a11.39,11.39,0,0,0,8.1-2.81,9,9,0,0,0,3-6.83,9.39,9.39,0,0,0-3-7.3c-2-1.83-4.75-2.75-8.23-2.75q-9.91,0-19.82,7.91l-9-16.74q13.53-11.25,33.21-11.25a37.74,37.74,0,0,1,14.26,2.74,27.39,27.39,0,0,1,11.58,9.11,24.41,24.41,0,0,1,4.82,15.2q0,13.53-12.45,20.89v.26a21.52,21.52,0,0,1,15,21.29q0,13.53-9.91,21.5t-24.24,8Q181,334.47,166.84,319.88Z"/><path class="cls-4" d="M251.06,332.87V237.13h62.27v20.08H274.49v14.86h16.34q13.92,0,22.56,8.57t8.64,22q0,13.39-8.64,21.83t-22.56,8.44Zm23.43-20.09h11.92q5.63,0,8.7-2.74a9.44,9.44,0,0,0,3.08-7.44,9.79,9.79,0,0,0-3.14-7.56q-3.15-2.88-9-2.88H274.49Z"/><path class="cls-4" d="M325.38,332.87l32.53-95.74h24.64l32.54,95.74H391l-5.89-20.09H355.24l-5.76,20.09ZM360.73,294h18.88l-5.36-18.62L370.37,259h-.27q-2.14,10.46-3.88,16.47Z"/><path class="cls-4" d="M417.37,284.8q0-21.17,14.12-35.22t36.09-14.06a57.6,57.6,0,0,1,19.55,3.41A44.58,44.58,0,0,1,503.46,249l-10.84,17.68a40.78,40.78,0,0,0-11.32-7,32.4,32.4,0,0,0-12.65-2.75q-13.39,0-20.22,8a28.73,28.73,0,0,0-6.83,19.35,30.87,30.87,0,0,0,7,20.22q7,8.56,20,8.57,13.65,0,25.44-11.78l12.05,17.14q-15.52,16.06-38.56,16.06-22.77,0-36.49-14T417.37,284.8Z"/><path class="cls-4" d="M510.69,284.8q0-21.17,14.13-35.22t36.09-14.06a57.6,57.6,0,0,1,19.55,3.41A44.58,44.58,0,0,1,596.79,249L586,266.72a40.78,40.78,0,0,0-11.32-7A32.4,32.4,0,0,0,562,256.94q-13.4,0-20.22,8a28.73,28.73,0,0,0-6.83,19.35,30.87,30.87,0,0,0,7,20.22q7,8.56,20,8.57,13.65,0,25.44-11.78l12.05,17.14q-15.54,16.06-38.56,16.06-22.77,0-36.49-14T510.69,284.8Z"/><path class="cls-3" d="M679.55,333.54V237.8h80.88v95.74H737V257.75H703v75.79Z"/><path class="cls-3" d="M773.55,333.54V237.8h60v20.08H797v17.41h29.19v20.08H797v18.08h38.43v20.09Z"/><path class="cls-3" d="M868.76,299.66q-14.87,0-22.43-7.9t-7.57-22.1V237.8h24v26.37q0,14.2,12.72,14.2A32.2,32.2,0,0,0,892.32,274V237.8h24v95.74h-24V298.85l.27-4.28h-.27A59.69,59.69,0,0,1,868.76,299.66Z"/><path class="cls-3" d="M936.37,333.54V237.8h23.44v44.72l-1.07,16.33H959a140.92,140.92,0,0,1,8-16.33l26.51-44.72h23.7v95.74H993.82V289l1.07-16.34h-.27a140.5,140.5,0,0,1-8,16.34l-26.65,44.59Z"/></g></g></svg>