<svg xmlns="http://www.w3.org/2000/svg" style="display:none"><defs><style>.cls-1{fill:#ff0d0d;fill-rule:evenodd}</style><style>.cls-1{fill:#6f6f6f;fill-rule:evenodd}</style><style>.cls-1{fill:#bdbdbd;fill-rule:evenodd}</style><style>.cls-1{fill:#ff0d0d;fill-rule:evenodd}</style></defs><symbol id="icon-basket" viewBox="0 0 24 22"><path id="Forma_1" data-name="Forma 1" class="cls-1" d="M1443.9 213.2a.52.52 0 0 0-.4-.2h-19l-.5-2.6a.538.538 0 0 0-.5-.4h-3a.5.5 0 0 0 0 1h2.6l2.4 12.2a3.523 3.523 0 0 0 3.4 2.8h11.5a.5.5 0 0 0 0-1H1429a2.305 2.305 0 0 1-2-1.1l14.6-2a.43.43 0 0 0 .4-.4l2-8a.494.494 0 0 0-.1-.3zm-2.8 7.8l-14.6 1.9-1.8-9h18.1zm-12.6 6a2.5 2.5 0 1 0 2.5 2.5 2.476 2.476 0 0 0-2.5-2.5zm0 4a1.5 1.5 0 1 1 1.5-1.5 1.538 1.538 0 0 1-1.5 1.5zm10-4a2.5 2.5 0 1 0 2.5 2.5 2.476 2.476 0 0 0-2.5-2.5zm0 4a1.5 1.5 0 1 1 1.5-1.5 1.538 1.538 0 0 1-1.5 1.5z" transform="translate(-1420 -210)"/></symbol><symbol id="icon-compare" viewBox="0 0 24 24"><path id="Forma_1" data-name="Forma 1" class="cls-1" d="M1285.96 223.633l-3.94-8.6.96-.475-.36-.716-.93.464-.13-.275a.4.4 0 0 0-.53-.2.418.418 0 0 0-.19.2l-.12.245a5.1 5.1 0 0 0-2.16-.478h-3.36V213h.8v-.8h-.69l.29-1.151a1.649 1.649 0 0 0-3.2-.8 1.55 1.55 0 0 0 0 .8l.29 1.151h-.69v.8h.8v.8h-3.36a5.084 5.084 0 0 0-2.16.479l-.12-.245a.4.4 0 0 0-.53-.2.418.418 0 0 0-.19.2l-.13.275-.93-.466-.36.717.96.477-3.94 8.6a.327.327 0 0 0-.04.167 2.8 2.8 0 0 0 2.8 2.8h4a2.8 2.8 0 0 0 2.8-2.8.324.324 0 0 0-.04-.166l-3.95-8.63a4.345 4.345 0 0 1 1.83-.4h3.36v14.636l-1.37 1.365H1270a2 2 0 0 0-2 2 .4.4 0 0 0 .4.4h11.2a.4.4 0 0 0 .4-.4 2 2 0 0 0-2-2h-1.43l-1.37-1.365V214.6h3.36a4.345 4.345 0 0 1 1.83.4l-3.95 8.629a.327.327 0 0 0-.04.167 2.8 2.8 0 0 0 2.8 2.8h4a2.8 2.8 0 0 0 2.8-2.8.324.324 0 0 0-.04-.163zm-17.16 2.167h-4a2 2 0 0 1-1.96-1.6h7.92a2 2 0 0 1-1.96 1.6zm1.78-2.4h-7.56l3.68-8.017a.377.377 0 0 0 .2 0zm2.75-13.274a.87.87 0 0 1 1.23-.1.687.687 0 0 1 .11.1.83.83 0 0 1 .15.729l-.33 1.345h-.98l-.33-1.345a.83.83 0 0 1 .15-.73zm.27 3.674v-.8h.8v.8h-.8zm.8.8V229h-.8v-14.4h.8zm3.6 16.8a1.2 1.2 0 0 1 1.13.8h-10.26a1.2 1.2 0 0 1 1.13-.8h8zm-2.57-.8h-2.86l.8-.8h1.26zm5.67-15.216a.272.272 0 0 0 .2-.008l3.68 8.024h-7.56zm2.1 10.416h-4a2 2 0 0 1-1.96-1.6h7.92a2 2 0 0 1-1.96 1.6z" transform="translate(-1262 -209)"/></symbol><symbol id="icon-eye" viewBox="0 0 24 14"><path class="cls-1" d="M23.61 5.84a15 15 0 0 0-5.05-4.26A14.3 14.3 0 0 0 12.18 0h-.37a14.327 14.327 0 0 0-6.38 1.58A15.065 15.065 0 0 0 .39 5.84a1.92 1.92 0 0 0 0 2.32 14.921 14.921 0 0 0 5.04 4.25A14.206 14.206 0 0 0 11.81 14h.37a14.174 14.174 0 0 0 6.38-1.59 14.86 14.86 0 0 0 5.05-4.25 1.92 1.92 0 0 0 0-2.32zM5.87 11.51a13.934 13.934 0 0 1-4.71-3.97.915.915 0 0 1 0-1.09 14.048 14.048 0 0 1 4.71-3.97 15.906 15.906 0 0 1 1.59-.69 7.135 7.135 0 0 0 0 10.42 13.962 13.962 0 0 1-1.59-.7zM12 13a6 6 0 1 1 5.83-6A5.926 5.926 0 0 1 12 13zm10.84-5.46a13.934 13.934 0 0 1-4.71 3.97 12.325 12.325 0 0 1-1.59.69 7.124 7.124 0 0 0 0-10.41 15.906 15.906 0 0 1 1.59.69 14.048 14.048 0 0 1 4.71 3.97.915.915 0 0 1 0 1.09zM12 4.43A2.571 2.571 0 1 0 14.49 7 2.527 2.527 0 0 0 12 4.43zm0 4.13A1.561 1.561 0 1 1 13.52 7 1.541 1.541 0 0 1 12 8.56z"/></symbol><symbol id="icon-pdf" viewBox="0 0 23 24"><path id="Shape_1_&#x43A;&#x43E;&#x43F;&#x438;&#x44F;" data-name="Shape 1 &#x43A;&#x43E;&#x43F;&#x438;&#x44F;" class="cls-1" d="M978.869 1541.49l-6.219-6.35a.472.472 0 0 0-.338-.14h-9.268a1.868 1.868 0 0 0-1.881 1.85v6.46h-3.756a1.4 1.4 0 0 0-1.407 1.38v6.93a1.4 1.4 0 0 0 1.407 1.38h3.756v4.15a1.868 1.868 0 0 0 1.881 1.85h14.075a1.868 1.868 0 0 0 1.881-1.85v-15.34a.464.464 0 0 0-.131-.32zm-6.44-5.24l5.1 5.21h-5.1v-5.21zm-15.022 15.83a.467.467 0 0 1-.468-.46v-6.93a.467.467 0 0 1 .468-.46h12.675a.467.467 0 0 1 .469.46v6.93a.467.467 0 0 1-.469.46h-12.675zm20.654 5.07a.939.939 0 0 1-.942.93h-14.075a.939.939 0 0 1-.942-.93V1553h7.98a1.4 1.4 0 0 0 1.408-1.38v-6.93a1.4 1.4 0 0 0-1.408-1.38H962.1v-6.46a.939.939 0 0 1 .942-.93h8.446v6a.461.461 0 0 0 .469.46h6.1v14.77zm-16.45-10.44a1.056 1.056 0 0 0-.58-.39 5.055 5.055 0 0 0-.968-.05h-1.306v3.96h.814v-1.5h.529a4.645 4.645 0 0 0 .844-.05 1.267 1.267 0 0 0 .422-.19 1.177 1.177 0 0 0 .342-.39 1.278 1.278 0 0 0 .135-.61 1.232 1.232 0 0 0-.232-.78zm-.7 1.09a.522.522 0 0 1-.254.2 2.216 2.216 0 0 1-.644.06h-.445v-1.12h.393a4.034 4.034 0 0 1 .586.02.572.572 0 0 1 .327.18.552.552 0 0 1 .04.66zm4.845-.45a1.713 1.713 0 0 0-.385-.64 1.33 1.33 0 0 0-.608-.37 3.021 3.021 0 0 0-.767-.07h-1.488v3.96h1.532a2.747 2.747 0 0 0 .72-.08 1.567 1.567 0 0 0 .572-.32 1.744 1.744 0 0 0 .432-.7 2.571 2.571 0 0 0 .124-.84 2.85 2.85 0 0 0-.129-.94zm-.792 1.63a.883.883 0 0 1-.213.38.7.7 0 0 1-.329.16 1.962 1.962 0 0 1-.492.04h-.608v-2.62h.366a4.728 4.728 0 0 1 .668.03.878.878 0 0 1 .377.19.9.9 0 0 1 .231.38 2.375 2.375 0 0 1 .082.71 2.573 2.573 0 0 1-.079.73zm4.384-2.04v-.67h-2.764v3.96h.816v-1.69h1.683v-.67H967.4v-.93h1.95z" transform="translate(-956 -1535)"/></symbol><symbol id="icon-phone"><path d="M23.984 19.753a1.84 1.84 0 0 0-.914-1.364l-5.922-3.409a1.857 1.857 0 0 0-2.237.296l-1.167 1.166a.855.855 0 0 1-1.142.064 33.832 33.832 0 0 1-2.691-2.42 33.659 33.659 0 0 1-2.42-2.691.854.854 0 0 1 .064-1.142l1.166-1.166a1.857 1.857 0 0 0 .296-2.237L5.607.929A1.84 1.84 0 0 0 4.243.016a1.843 1.843 0 0 0-1.555.527L.93 2.301C-.297 3.527-.316 5.771.875 8.618c1.145 2.738 3.282 5.752 6.017 8.486 2.735 2.735 5.75 4.872 8.488 6.017 1.402.586 2.657.878 3.717.878 1.094 0 1.979-.311 2.602-.934l1.757-1.757a1.84 1.84 0 0 0 .528-1.555zm-7.224-4.1l5.922 3.409c.293.169.487.458.531.793.037.281-.036.558-.202.781l-7.87-4.491.32-.32a1.08 1.08 0 0 1 1.299-.172zM4.141.787c.335.044.624.238.792.53l3.41 5.921c.243.421.172.956-.172 1.299l-.293.294L3.361.988a1.07 1.07 0 0 1 .78-.201zm17.008 21.728c-.975.975-2.968.934-5.469-.112-2.647-1.107-5.573-3.184-8.238-5.848-2.665-2.666-4.743-5.59-5.85-8.237C.546 5.817.505 3.825 1.48 2.85l1.305-1.304 4.523 7.855-.303.303a1.63 1.63 0 0 0-.12 2.179c.757.941 1.59 1.867 2.476 2.752a34.507 34.507 0 0 0 2.754 2.477c.65.523 1.587.471 2.179-.12l.277-.277 7.881 4.497-1.303 1.303z"/></symbol><symbol id="temp-icon-left-arrow" viewBox="0 0 31.494 31.494"><path d="M10.273 5.01a1.117 1.117 0 0 1 1.587 1.57l-8.047 8.047h26.554c.62 0 1.127.492 1.127 1.11 0 .62-.508 1.128-1.127 1.128H3.813l8.047 8.032c.43.444.43 1.16 0 1.587a1.112 1.112 0 0 1-1.587 0L.32 16.532a1.12 1.12 0 0 1 0-1.57l9.953-9.953z" fill="#1E201D"/></symbol><symbol id="temp-icon-right-arrow" viewBox="0 0 31.49 31.49"><path d="M21.205 5.007a1.117 1.117 0 0 0-1.587 1.57l8.047 8.048H1.11c-.618 0-1.11.493-1.11 1.112 0 .62.492 1.127 1.11 1.127h26.555l-8.047 8.032c-.43.444-.43 1.16 0 1.587.444.444 1.16.444 1.587 0l9.952-9.952a1.092 1.092 0 0 0 0-1.57l-9.952-9.95z" fill="#1E201D"/></symbol></svg>